HIERARCHY
ROOT ui
{
	 OFFSET 0 0 0
	 CHANNELS 3 XPosition YPosition Z Position
	 EndSite
	 {
	 OFFSET 0 -1 0
	 }
}
ROOT li
{
	 OFFSET 0 0 0
	 CHANNELS 3 XPosition YPosition Z Position
	 EndSite
	 {
	 OFFSET 0 -1 0
	 }
}
ROOT ul
{
	 OFFSET 0 0 0
	 CHANNELS 3 XPosition YPosition Z Position
	 EndSite
	 {
	 OFFSET 0 -1 0
	 }
}
ROOT ll
{
	 OFFSET 0 0 0
	 CHANNELS 3 XPosition YPosition Z Position
	 EndSite
	 {
	 OFFSET 0 -1 0
	 }
}
ROOT tt
{
	 OFFSET 0 0 0
	 CHANNELS 3 XPosition YPosition Z Position
	 EndSite
	 {
	 OFFSET 0 -1 0
	 }
}
ROOT tb
{
	 OFFSET 0 0 0
	 CHANNELS 3 XPosition YPosition Z Position
	 EndSite
	 {
	 OFFSET 0 -1 0
	 }
}
ROOT td
{
	 OFFSET 0 0 0
	 CHANNELS 3 XPosition YPosition Z Position
	 EndSite
	 {
	 OFFSET 0 -1 0
	 }
}
ROOT v
{
	 OFFSET 0 0 0
	 CHANNELS 3 XPosition YPosition Z Position
	 EndSite
	 {
	 OFFSET 0 -1 0
	 }
}
ROOT bn
{
	 OFFSET 0 0 0
	 CHANNELS 3 XPosition YPosition Z Position
	 EndSite
	 {
	 OFFSET 0 -1 0
	 }
}
MOTION
Frames: 10
Frame Time: 0.002
0.003456809997558594	-1.3218900561332703E-4	0		0.5959310913085938	-2.446135009765625	0		-1.078454833984375	0.014941866874694825	0		-0.3978475341796875	-2.835854248046875	0		1.5007513427734376	-0.7184295654296875	0		3.35065966796875	-0.17635537719726563	0		4.745453125	-0.04649560165405273	0		5.64294482421875	0.1679288330078125	0		-0.17974124145507814	5.94756396484375	0		
-0.02526141929626465	0.00497640323638916	0		0.5504895629882812	-2.435399658203125	0		-1.0673013916015626	0.012770489692687988	0		-0.3803974914550781	-2.841791748046875	0		1.52214208984375	-0.7255470581054687	0		3.347078369140625	-0.1671094207763672	0		4.74665625	-0.04467116165161133	0		5.64084130859375	0.15457960510253907	0		-0.34792742919921876	5.9221728515625	0		
0.003991086006164551	0.006989037990570069	0		0.5548787231445312	-2.433633544921875	0		-1.0679547119140624	0.0198465576171875	0		-0.4056817626953125	-2.832909912109375	0		1.5168375244140626	-0.7171571655273438	0		3.3316044921875	-0.15267469787597657	0		4.75026953125	-0.021929752349853514	0		5.6405546875	0.18950376892089843	0		-0.30024655151367186	5.9356416015625	0		
-0.0179421329498291	-0.001037703037261963	0		0.5572000122070313	-2.433825439453125	0		-1.070806396484375	0.015986532211303712	0		-0.3373153381347656	-2.8417314453125	0		1.525229736328125	-0.725035400390625	0		3.356826416015625	-0.15503273010253907	0		4.74911083984375	-0.04116769409179687	0		5.6456298828125	0.1790770263671875	0		-0.3169228515625	5.9253310546875	0		
0.003346894025802612	0.0031708400249481202	0		0.5574332275390625	-2.435976318359375	0		-1.0736796875	0.011159005165100098	0		-0.3904897766113281	-2.820324951171875	0		1.526750244140625	-0.7247984008789062	0		3.376182861328125	-0.14931265258789062	0		4.74033349609375	-0.039344207763671875	0		5.64652392578125	0.18252587890625	0		-0.18494407653808595	5.94441357421875	0		
-0.02046634292602539	0.0031910090446472168	0		0.5575958251953125	-2.43812109375	0		-1.0724998779296875	0.010301207542419434	0		-0.2603931579589844	-2.837099853515625	0		1.52109912109375	-0.7324536743164063	0		3.332315185546875	-0.1545453643798828	0		4.74182666015625	-0.020788122177124023	0		5.64027099609375	0.1860965576171875	0		-0.3195892639160156	5.92421728515625	0		
0.005684089183807373	0.002372533082962036	0		0.5695526733398437	-2.44745947265625	0		-1.13940625	0.006635893821716308	0		-0.39507421875	-2.833287109375	0		1.5296744384765626	-0.724366943359375	0		3.342495849609375	-0.15578182983398436	0		4.74580419921875	-0.03037059783935547	0		5.64823388671875	0.1854190673828125	0		-0.33968328857421876	5.92802099609375	0		
-0.010213083267211914	0.0012885340452194213	0		0.57668017578125	-2.4407001953125	0		-1.0521378173828124	0.014436580657958985	0		-0.36371002197265623	-2.8212763671875	0		1.495045654296875	-0.724580810546875	0		3.384681396484375	-0.15460011291503906	0		4.75104736328125	-0.022067543029785155	0		5.64906005859375	0.18829428100585938	0		-0.324587646484375	5.936265625	0		
0.010921791076660156	0.004621838092803955	0		0.5676797485351562	-2.43466845703125	0		-1.0610517578125	0.014900301933288574	0		-0.3745649108886719	-2.814531494140625	0		1.5354403076171874	-0.7200431518554687	0		3.34298974609375	-0.14210057067871093	0		4.7523857421875	-0.004798140048980713	0		5.64568798828125	0.20842538452148437	0		-0.17425765991210937	5.95137890625	0		
-0.013054098129272461	0.004706575870513916	0		0.5674317016601562	-2.436772705078125	0		-1.0640809326171874	0.011318495750427246	0		-0.372662841796875	-2.814962158203125	0		1.4876622314453125	-0.7211023559570312	0		3.34586669921875	-0.15339968872070311	0		4.751078125	-0.024592443466186522	0		5.6434970703125	0.19714947509765626	0		-0.343485107421875	5.9276689453125	0		
